<svg xmlns="http://www.w3.org/2000/svg" viewBox="0 0 195.1 195.1">
  <g data-name="2">
    <path data-name="2-1"
          d="M89.4 178.5v-4.4l-7.3-1.2c-15.5-2.7-35.5-15.1-45.4-28.3-8.2-11.1-15.3-27.7-15.3-36.1s-.3-2.8-4.6-2.8h-4.6V89.4h4.6c4.3 0 4.6-.2 4.6-2.8s.9-5.8 1.9-9.5C29.1 56.9 42.5 40 61 29.8c6.4-3.6 21-8.3 25.4-8.3s2.9-.3 3.3-4.3l.3-4.4 7.9-.3 7.8-.3v4.7c0 4.3.2 4.6 2.8 4.6s14.2 3.1 20.8 6c10.4 4.5 23.3 14.8 29.7 24 7.7 10.9 14.7 27.6 14.7 35.2s.2 2.9 4.6 2.9h4.6v16.3h-4.6c-4.4 0-4.6 0-4.6 2.9s-1 6.1-2.1 9.9c-6.5 21.1-21.1 38.6-40 48-7.3 3.7-18.9 7.3-23 7.3s-2.9.2-2.9 4.6v4.6H89.4v-4.7zm-.5-25.2v-8.4l-4.4-.8c-14-2.3-31.2-19.9-33.6-34.3l-.6-3.6-8-.3c-4.5-.2-8.4 0-8.9.6-1.2 1.2 4.3 17.2 8.3 24.1 4.5 7.5 15.1 18.2 22.7 22.8 5.7 3.4 21.6 9.3 23.6 8.8.6-.2 1-4 1-8.8zm27.2 6.3c9.8-3.3 15-6.1 22.8-12.2 9.7-7.7 18.5-21.7 21.4-33.7.7-2.6 1.5-5.5 1.8-6.4.6-1.5-.3-1.7-8.3-1.4l-9 .3-.6 3.6c-2.4 14.6-19.6 31.8-35.2 35l-3.4.7v8.5c0 4.7.4 8.5.8 8.5s4.9-1.3 9.7-2.9zm-.5-25.9c8.6-4.6 14.4-10.7 18.6-19.4 3.8-7.8 3.8-8.6-.5-8.6s-3.6-.4-3.9-2.2c-.3-2.3-.4-2.3-14-1.9-7.5.2-13.8.4-13.8.5 0 0-.4 6.1-.6 13.5-.4 13.1-.3 13.4 1.9 14.4 1.3.6 2.3 1.9 2.3 3 0 2.5 1.1 5.4 1.9 5 .3-.2 4-2.1 8-4.3zm-26 .7c.2-1.6 1.2-3.3 2.3-3.8 1.9-.8 2-1.7 1.7-12.7 0-6.5-.4-12.9-.5-14.2-.2-2.3-.3-2.3-13.4-2.5-12.8 0-13.2 0-14.2 2.2-.7 1.5-1.8 2.2-3.9 2.2-4.2 0-4.3 2-.7 9.1 4 7.8 10.8 14.7 18.8 19 7.6 4.2 9.4 4.2 9.9.6zM130 91.2c0-1.4.8-1.8 3.6-1.8 4.4 0 4.4-.7.5-8.9-3.6-7.6-11-15.3-18.3-19-6.6-3.4-9.2-3-10.4 1.1-.4 1.7-1.5 3.8-2.3 4.5-1.2 1-1.5 3.9-1.5 13.8v12.6h11c6 .2 12 .5 13.4.9 2.7.8 4.1-.2 4.1-3.1h-.1zm-46.2 2.3h9.3l.7-12.9c.4-7 .8-13.3.9-13.8 0-.6-.9-1.3-2.3-1.7-1.8-.4-2.6-1.4-2.8-3.4-.5-4.1-2.2-4.3-8.4-1.1-9.4 4.7-15.5 10.7-20.1 19.8-2.3 4.5-4.2 8.3-4.2 8.5s1.7.5 3.9.7c3 .2 3.9.7 4.1 2.7.3 2.2.7 2.3 5 1.7 2.5-.3 8.8-.6 14-.6zm-32.9-8.3C53.1 71 70.5 53.3 84.5 51l4.4-.8.3-8.3c.3-8.2.2-8.3-2.1-8.3-4.1 0-16.2 4.4-22.6 8.1-7.6 4.5-18.3 15.1-22.7 22.6-3.1 5.3-9.2 21-9.3 24 0 1 2.1 1.2 8.8 1l8.9-.3.6-3.7zm111.2 2.7c-.3-.9-1.3-4.5-2.2-7.9-3.3-12.8-13-26.7-24.1-34.5-8.1-5.8-11.8-7.6-20.7-10.4-9.1-2.8-9.7-2.4-9.2 7.7l.3 7.5 4.2.6c15.1 2.6 30.7 18.7 34.3 35.8.6 2.7.7 2.7 9.3 2.7s8.6-.2 8.1-1.5z"
          fill="#778f9c" />
  </g>
  <g data-name="3">
    <path data-name="3-1"
          d="M89.3 178.1v-25c0-20 .5-23.1 3.6-23.1s1.2-16.4.3-26.3c-.2-2.3-.3-2.3-13.4-2.5-12.8 0-13.2 0-14.2 2.2-.7 1.5-1.9 2.2-4.1 2.3H12.2V89.4l26.1.2c25.8.3 26.2.3 26.5 2.4s.6 2.1 15.1 1.6c12-.4 14.6-.2 14 .8-.5.8-.1-9.6.2-15.8.3-6.1.6-11.6.6-12.1 0-.6-.7-1.2-1.8-1.4s-2.4-.8-2.9-1.3c-1-.9-1-49.2 0-50.8.3-.5 4-.9 8.1-.9h7.5v4.4c0 2.3 0 13.7.2 25.3.2 20.3 0 21.2-2 24.1-2 2.7-2.2 4.3-2.2 15.2v12.2l2.8.4s16.6.2 19.7.4c5.2.4 5.1.7 5.6-1.9l.6-2.8h52.5v16.3h-49.2c-2.8 0-3.6-.4-3.9-2.2-.3-2.2-.6-2.3-9.9-1.9-6.8.2-15.1 0-16.2 0-1.6 0-1.8 1.2-2.2 13.5-.2 7.3 0 13.5.3 13.7 4.3 1.9 4.3 2 4.2 24.2 0 11.7-.2 23.2-.2 25.6v4.3H89.4v-4.8h-.1z"
          fill="#35464d" />
  </g>
  <g data-name="4">
    <path data-name="4-1"
          d="M94 126.8c-.3-1.3-.6-7.5-.8-13.9l-.2-11.5-12.7-.3c-7 0-13.2.2-13.9.7-.9.7-1.1 0-.6-2.9.3-2.1.8-4.1 1-4.4.2-.2 6.6-.6 14.2-.8 11-.4 11.2.2 12-.3s1-3.7.9-4.2-.3-5.4 0-11.3l.7-10.8h3.8l2.2.2c.8.5 1.4 1.4 1.4 2.3l-.3 10.6v13.2h5.6l10.5.3c-2.4 0 3.3-.2 5.9.3 1.8.4 3.4.2 4.1.6s.6 1.7.6 2.9c0 1.9.2 3.9-2.3 3.8-5.2-.2-4.8 0-6.2.2s-15.4.3-16.5.3c-1.8 0-1.8.6-1.8 10.3 0 14.7-.5 16.9-4.2 16.9s-3-.6-3.5-2.2z"
          fill="#6c8694" />
  </g>
</svg>